<svg width="24" height="25" viewBox="0 0 24 25" fill="none" xmlns="http://www.w3.org/2000/svg">
<path fill-rule="evenodd" clip-rule="evenodd" d="M9.01294 1.77991C7.02036 1.77991 5.10939 2.5726 3.70042 3.9836C2.29146 5.3946 1.49991 7.30833 1.49991 9.30379C1.49991 11.2992 2.29146 13.213 3.70042 14.624C5.10939 16.035 7.02036 16.8277 9.01294 16.8277V18.3297C6.62256 18.3297 4.33008 17.3788 2.63983 15.6861C0.949574 13.9934 0 11.6976 0 9.30379C0 6.90996 0.949574 4.61417 2.63983 2.92147C4.33008 1.22878 6.62256 0.277832 9.01294 0.277832V1.77991ZM16.5275 9.30379C16.5275 8.31561 16.3331 7.33711 15.9554 6.42418C15.5778 5.51124 15.0242 4.68174 14.3264 3.98307C13.6286 3.28439 12.8002 2.73022 11.8885 2.3522C10.9768 1.97417 9.99969 1.77971 9.01294 1.77991V0.277832C10.1967 0.277635 11.3688 0.510953 12.4625 0.964461C13.5562 1.41797 14.5499 2.08279 15.387 2.92094C16.2241 3.7591 16.8881 4.75418 17.3412 5.84936C17.7942 6.94453 18.0274 8.11836 18.0274 9.30379H16.5275ZM10.5128 10.0548L9.76289 10.8059V23.56L10.5128 24.311H23.25L24 23.56V10.8044L23.25 10.0533H10.5113L10.5128 10.0548ZM11.2628 22.8104V11.5554H22.5001V22.8104H11.2628Z" fill="#676767"/>
</svg>
