<svg width="56" height="57" viewBox="0 0 56 57" fill="none" xmlns="http://www.w3.org/2000/svg">
<g clip-path="url(#clip0_61_374)">
<g clip-path="url(#clip1_61_374)">
<g clip-path="url(#clip2_61_374)">
<path d="M0 9.72396C0 4.5693 4.17867 0.390625 9.33333 0.390625H46.6667C51.8214 0.390625 56 4.5693 56 9.72396V47.0573C56 52.212 51.8214 56.3906 46.6667 56.3906H9.33333C4.17867 56.3906 0 52.212 0 47.0573V9.72396Z" fill="white"/>
<path fill-rule="evenodd" clip-rule="evenodd" d="M10.4156 27.4323C10.4156 27.4323 11.232 27.2934 11.5684 27.656C11.9051 28.0183 11.6845 28.7681 11.2376 28.7805C10.7908 28.7929 10.3779 28.878 10.0847 28.557C9.7915 28.2359 9.87022 27.5907 10.4156 27.4323ZM19.2778 32.5491C19.1992 32.5576 19.116 32.5204 19.0307 32.4576C18.4454 31.6164 18.234 28.7399 17.9653 28.5685C17.6867 28.391 16.6778 30.1623 14.6709 29.9719C13.8317 29.8922 12.9777 29.3315 12.4748 28.9431C12.5216 28.2896 12.5297 26.7633 13.7796 27.2596C14.539 27.5611 15.8392 28.3889 16.9811 26.9023C18.2437 25.2582 18.9401 25.7359 19.3578 26.0932C19.7752 26.4506 19.4971 28.3092 20.1198 27.7895C20.7426 27.27 23.2573 24.044 23.2573 24.044C23.2573 24.044 25.2043 22.0191 25.5024 24.1478C25.8007 26.2764 27.07 28.6354 27.4064 28.5682C27.7431 28.5009 31.6592 20.2924 32.2203 19.7629C32.7812 19.2332 34.6694 19.3027 34.5797 20.6613C34.4899 22.0199 34.2976 30.4642 34.2976 30.4642C34.2976 30.4642 34.0761 32.8438 34.4369 31.572C34.5866 31.0448 34.7473 30.5691 34.9483 30.0143C35.9147 26.8232 37.5611 21.3718 38.3815 18.5628C38.5702 17.8907 38.7326 17.3138 38.8586 16.8704L38.8589 16.8691C38.9079 16.6636 38.9566 16.5008 39.0055 16.3555C39.0741 16.1174 39.1205 15.9599 39.1347 15.9184C39.1714 15.8134 39.2743 15.7332 39.4186 15.6744C39.5637 15.5801 39.7192 15.5752 39.8956 15.5706C40.3509 15.5285 40.9364 15.5897 41.4631 15.7444C41.6164 15.7507 41.7832 15.8013 41.9409 15.9181C41.9409 15.9181 41.9504 15.9243 41.9637 15.9332C41.9673 15.9361 41.971 15.9381 41.9748 15.9411C42.0078 15.9648 42.0612 16.0113 42.1229 16.0881C42.1248 16.0906 42.1268 16.0936 42.1289 16.0958C42.1544 16.1281 42.1802 16.1664 42.2065 16.21C42.5005 16.6549 42.6812 17.4749 42.5001 18.9294C42.0486 22.5586 41.699 30.0246 41.699 30.0246C41.699 30.0246 41.6294 30.3818 42.3549 28.8093C42.3803 28.7546 42.4126 28.7074 42.4422 28.6571C42.4816 28.6305 42.5254 28.5922 42.5799 28.5247C43.028 27.9735 44.2327 27.65 45.0682 27.6565C45.4203 27.7004 45.7151 27.7918 45.8913 27.9066C46.221 28.4241 46.0264 30.334 46.0264 30.334C45.3314 30.4003 44.0066 30.786 43.5369 30.8571C43.0672 30.9288 42.3538 34.0739 41.3622 33.7523C40.3704 33.4306 38.1605 32.001 38.1605 31.8045C38.1605 31.6332 38.3342 29.544 38.3794 29.0047C38.3827 28.9674 38.3854 28.9329 38.3881 28.8985C38.3891 28.8885 38.3901 28.8769 38.3901 28.8769C38.422 28.4522 38.3934 28.2672 38.2033 28.6911C38.0395 29.0557 37.3276 31.3887 36.5339 33.9296C36.45 34.1516 34.9498 38.8338 34.7529 39.4046C34.5179 40.0667 34.3203 40.5736 34.1839 40.8358C33.9762 41.1261 33.6966 41.3077 33.306 41.1858C32.3317 40.8822 31.0977 39.4937 31.0863 39.1491C31.0628 37.2062 31.1778 26.7589 30.721 27.6295C30.2522 28.5222 26.6071 34.7171 26.6071 34.7171C26.5461 34.7279 26.5009 34.726 26.4471 34.731C26.1891 34.7019 25.7891 34.6154 25.6785 34.3606C25.6725 34.3456 25.6644 34.332 25.659 34.3162C25.6538 34.3005 25.6478 34.2826 25.6387 34.2538C25.5893 34.0832 25.569 33.8981 25.5253 33.7464C25.3622 33.1788 25.1013 32.3656 24.8276 31.538C24.408 30.1272 23.9754 28.684 23.9043 28.5247C23.7652 28.2129 23.5624 28.3443 23.3805 28.5244C22.567 29.2361 20.8387 32.3773 19.2778 32.5491Z" fill="#FFA202"/>
<path d="M9.33325 1.55697H46.6666V-0.776367H9.33325V1.55697ZM54.8333 9.72363V47.057H57.1666V9.72363H54.8333ZM46.6666 55.2236H9.33325V57.557H46.6666V55.2236ZM1.16659 47.057V9.72363H-1.16675V47.057H1.16659ZM9.33325 55.2236C4.82293 55.2236 1.16659 51.5673 1.16659 47.057H-1.16675C-1.16675 52.856 3.53427 57.557 9.33325 57.557V55.2236ZM54.8333 47.057C54.8333 51.5673 51.1769 55.2236 46.6666 55.2236V57.557C52.4656 57.557 57.1666 52.856 57.1666 47.057H54.8333ZM46.6666 1.55697C51.1769 1.55697 54.8333 5.21331 54.8333 9.72363H57.1666C57.1666 3.92465 52.4656 -0.776367 46.6666 -0.776367V1.55697ZM9.33325 -0.776367C3.53427 -0.776367 -1.16675 3.92465 -1.16675 9.72363H1.16659C1.16659 5.21331 4.82293 1.55697 9.33325 1.55697V-0.776367Z" fill="#EBEEF1"/>
</g>
</g>
</g>
<defs>
<clipPath id="clip0_61_374">
<rect y="0.390625" width="56" height="56" rx="10" fill="white"/>
</clipPath>
<clipPath id="clip1_61_374">
<rect width="56" height="56" fill="white" transform="translate(0 0.390625)"/>
</clipPath>
<clipPath id="clip2_61_374">
<rect width="56" height="56" fill="white" transform="translate(0 0.390625)"/>
</clipPath>
</defs>
</svg>
