<?xml version="1.0" encoding="UTF-8"?><svg id="Layer_1" xmlns="http://www.w3.org/2000/svg" viewBox="0 0 512 512"><defs><style>.cls-1{fill:#ffe141;}.cls-2{fill:#0c831f;}</style></defs><rect class="cls-1" x="28.5" y="28.5" width="455" height="455" rx="96.2" ry="96.2"/><path d="M110.46,229.25c6.58,0,12.46,1.64,17.63,4.93,5.22,3.24,9.31,7.85,12.27,13.82,2.87,5.73,4.3,12.48,4.3,20.23s-1.43,14.24-4.3,20.16c-2.87,5.92-6.91,10.55-12.13,13.89-5.27,3.38-11.19,5.08-17.77,5.08-4.8,0-9.31-.99-13.54-2.96-4.23-1.97-7.85-4.75-10.86-8.32v9.51h-24.54v-100.94h24.54v35.81c3.01-3.57,6.63-6.32,10.86-8.25,4.23-1.97,8.74-2.96,13.54-2.96Zm-7.33,57.73c3.48,0,6.58-.8,9.31-2.4,2.73-1.6,4.87-3.83,6.42-6.7,1.55-2.82,2.33-6.04,2.33-9.66s-.78-6.72-2.33-9.59c-1.55-2.87-3.69-5.1-6.42-6.7-2.73-1.6-5.83-2.4-9.31-2.4-3.29,0-6.23,.8-8.81,2.4-2.59,1.55-4.61,3.74-6.06,6.56-1.46,2.87-2.19,6.11-2.19,9.73s.73,6.86,2.19,9.73c1.46,2.82,3.48,5.03,6.06,6.63,2.59,1.6,5.52,2.4,8.81,2.4Z"/><path d="M148.02,305.59v-100.94h24.54v100.94h-24.54Z"/><path d="M179.52,305.59v-74.65h24.4v74.65h-24.4Z"/><path d="M256.92,229.25c5.22,0,9.92,1.22,14.1,3.67,4.18,2.4,7.48,5.78,9.87,10.15,2.3,4.42,3.46,9.42,3.46,15.01v47.51h-23.41v-42.01c0-2.73-.54-5.15-1.62-7.26-1.03-2.16-2.51-3.83-4.44-5-1.88-1.17-4.09-1.76-6.63-1.76-2.4,0-4.61,.59-6.63,1.76-2.02,1.13-3.6,2.68-4.73,4.65-1.18,1.88-1.76,4.09-1.76,6.63l-.14,43h-24.4v-74.65h24.4v8.53c2.3-3.2,5.38-5.69,9.24-7.47,3.85-1.83,8.09-2.75,12.69-2.75Z"/><path d="M338.27,263.58l27.71,42.01h-27.71l-16.22-26.43-7.47,8.67v17.76h-24.54v-100.94h24.54v55.76l23.55-29.46h27.71l-27.57,32.64Z"/><path d="M179.5,204.66h24.48v19.14h-24.48v-19.14Z"/><path class="cls-2" d="M369.88,305.36v-74.65h24.4v74.65h-24.4Z"/><path class="cls-2" d="M445.87,284.29l4.87,15.72c-2.21,2.11-5.01,3.83-8.39,5.15-3.34,1.32-6.61,1.97-9.8,1.97-4.61,0-8.72-1.01-12.34-3.03-3.62-2.07-6.44-4.93-8.46-8.6-2.02-3.57-3.03-7.68-3.03-12.33v-32.92h-9.8v-19.53h9.8v-26.06h23.41v26.06h15.44v19.53h-15.44v28.41c0,2.4,.63,4.35,1.9,5.85,1.27,1.5,2.89,2.26,4.87,2.26,1.41,0,2.73-.21,3.95-.63,1.22-.42,2.23-1.03,3.03-1.83Z"/><path class="cls-2" d="M369.69,204.66h24.48v19.14h-24.48v-19.14Z"/></svg>