<svg width="57" height="57" viewBox="0 0 57 57" fill="none" xmlns="http://www.w3.org/2000/svg">
<g clip-path="url(#clip0_61_399)">
<g clip-path="url(#clip1_61_399)">
<g clip-path="url(#clip2_61_399)">
<mask id="mask0_61_399" style="mask-type:luminance" maskUnits="userSpaceOnUse" x="0" y="0" width="57" height="57">
<path d="M56.6562 0.390625H0.65625V56.3906H56.6562V0.390625Z" fill="white"/>
</mask>
<g mask="url(#mask0_61_399)">
<path d="M45.4562 0.390625H11.8562C5.67067 0.390625 0.65625 5.40504 0.65625 11.5906V45.1906C0.65625 51.3762 5.67067 56.3906 11.8562 56.3906H45.4562C51.6418 56.3906 56.6562 51.3762 56.6562 45.1906V11.5906C56.6562 5.40504 51.6418 0.390625 45.4562 0.390625Z" fill="#F49879"/>
<path d="M39.9895 29.3317C39.9895 28.7347 39.9193 28.3133 39.8841 28.0676C39.6734 26.2415 39.1116 24.9773 38.9009 24.5559C38.8306 24.4156 38.7604 24.3103 38.6902 24.1698L38.6551 24.0996H38.5848C38.5146 24.0996 38.3741 24.0996 38.2337 24.1347C36.9696 24.24 35.9512 24.5208 35.3191 24.7315C35.2137 24.7666 35.1435 24.8018 35.0382 24.8369C35.0382 24.7667 35.003 24.6964 35.003 24.5911C34.7572 22.9407 34.3007 21.7116 34.0549 21.1146C33.8091 20.4826 33.4931 19.8506 33.142 19.2887C33.1069 19.2185 32.1236 17.568 30.5785 16.1634C30.2975 15.9176 29.7709 15.3909 28.893 14.829C28.8227 14.7939 28.7876 14.7587 28.7525 14.7587L28.6823 14.7236L28.612 14.7587C28.5769 14.7939 28.5418 14.7939 28.4716 14.829C26.6104 16.1283 25.5219 17.7084 24.9951 18.4459C24.644 18.9375 23.8012 20.2368 23.1691 21.8521C22.6774 23.0812 22.5019 24.0644 22.4667 24.5208C22.4667 24.5911 22.4316 24.6964 22.4316 24.7666C22.4316 24.7666 22.1507 24.6613 21.6241 24.4858C21.6241 24.4858 21.6241 24.4858 21.5889 24.4858C21.5889 24.4858 21.5187 24.4506 21.4134 24.4506C20.7813 24.2751 19.8682 24.0995 18.7796 23.9591C18.7796 23.9591 18.7796 23.9591 18.4636 24.6964C18.3582 24.9071 18.288 25.1178 18.2179 25.2934C17.6209 26.8385 17.4102 28.4889 17.5155 30.1745C17.5858 31.1929 17.7613 32.176 18.0774 33.1242C18.9201 35.7579 20.395 37.935 22.5019 39.6909C22.8881 40.0068 23.6607 40.6389 24.7493 41.1305C26.4699 41.9382 28.0151 42.0436 28.7525 42.0436C28.8227 42.0436 28.893 42.0436 28.9281 42.0436C28.9632 42.0436 31.1754 41.9733 33.2473 40.8145C33.5634 40.6389 33.8793 40.4282 33.8793 40.4282C34.4061 40.077 34.7923 39.761 35.0733 39.5504C36.197 38.6374 37.1452 37.5136 37.9527 36.2494C39.0062 34.5289 39.4979 32.9486 39.6734 32.176C39.9544 30.9471 39.9895 29.8584 39.9895 29.3317ZM28.7876 36.7411C28.7876 37.8999 28.5769 39.0939 28.1906 40.2877C26.7509 40.0068 24.1875 39.2344 22.1858 37.022C20.711 35.4068 20.0789 33.6158 19.8682 33.0188V32.9837C19.4117 31.6845 19.2361 30.3501 19.2712 29.0156C19.2712 28.6996 19.3766 27.5057 19.8682 26.066V26.0308C19.9033 26.0308 19.9385 26.0308 19.9736 26.066C21.0622 26.2767 21.7996 26.5576 22.0806 26.6629C22.0806 26.6629 22.1858 26.6981 22.2912 26.7332C23.45 27.2248 24.4684 28.0676 24.7493 28.2782C26.4348 29.6829 27.2425 31.1929 27.5234 31.7899C27.6639 32.1058 27.8044 32.457 27.8746 32.6677V32.7028C28.1906 33.5105 28.4716 34.2479 28.6472 35.1609C28.7876 35.8282 28.7876 36.3899 28.7876 36.7411ZM28.7525 30.2447C28.3662 29.5775 27.8746 28.9103 27.3478 28.2782C27.1371 28.0325 26.8211 27.6462 26.3646 27.2248C26.189 27.0492 25.7677 26.6981 25.241 26.3118C24.8898 26.066 24.5386 25.8553 24.1875 25.6446C24.2577 25.0827 24.3279 24.5208 24.4684 23.9591C24.9249 22.0628 25.6975 20.6582 26.2592 19.7803C26.5402 19.3589 27.102 18.5512 27.9799 17.7084C28.2609 17.4275 28.5418 17.1817 28.8227 16.9359C30.1571 17.9894 31.2106 19.2536 31.948 20.6582C32.1938 21.1497 32.6855 22.133 33.0366 23.4674C33.2122 24.1698 33.3527 24.9071 33.4229 25.6094C32.4045 26.2064 31.4915 26.9088 30.6838 27.7516C30.1219 28.2782 29.4197 29.0859 28.7525 30.2447ZM36.6184 35.1961C36.0917 36.0739 35.4596 36.8464 34.7221 37.5136C33.4229 38.7076 31.8427 39.6206 30.0868 40.077C30.2975 39.3748 30.438 38.6725 30.5082 37.935C30.5433 37.4434 30.5785 36.6708 30.5082 35.7228C30.4029 34.564 30.1219 33.37 29.7007 32.2463C30.0517 31.4387 30.5433 30.6661 31.0701 29.9638C31.8075 29.0156 32.5099 28.3835 32.8962 28.1027C33.5985 27.5409 34.4061 27.0492 35.2137 26.6981C35.9863 26.382 36.7589 26.1362 37.6016 25.9957C37.742 26.4522 37.8474 26.9088 37.9527 27.3653C38.1283 28.4187 38.1985 29.2263 38.1985 29.2966C38.3039 30.0691 38.1634 32.6325 36.6184 35.1961Z" fill="white"/>
</g>
</g>
</g>
</g>
<defs>
<clipPath id="clip0_61_399">
<rect x="0.65625" y="0.390625" width="56" height="56" rx="10" fill="white"/>
</clipPath>
<clipPath id="clip1_61_399">
<rect width="56" height="56" fill="white" transform="translate(0.65625 0.390625)"/>
</clipPath>
<clipPath id="clip2_61_399">
<rect width="56" height="56" fill="white" transform="translate(0.65625 0.390625)"/>
</clipPath>
</defs>
</svg>
