<svg width="56" height="57" viewBox="0 0 56 57" fill="none" xmlns="http://www.w3.org/2000/svg">
<g clip-path="url(#clip0_61_413)">
<g clip-path="url(#clip1_61_413)">
<g clip-path="url(#clip2_61_413)">
<path d="M44.8 0.171875H11.2C5.01441 0.171875 0 5.18629 0 11.3719V44.9719C0 51.1575 5.01441 56.1719 11.2 56.1719H44.8C50.9856 56.1719 56 51.1575 56 44.9719V11.3719C56 5.18629 50.9856 0.171875 44.8 0.171875Z" fill="#BBBEAC"/>
<path fill-rule="evenodd" clip-rule="evenodd" d="M16.31 38.0673V18.8003L16.3102 18.7982C16.3107 18.7906 16.312 18.7739 16.3155 18.7497C16.3225 18.7011 16.3376 18.6225 16.3706 18.5236C16.4359 18.3278 16.5724 18.0471 16.8627 17.7567C17.4381 17.1813 18.7091 16.4821 21.5075 16.4821C24.306 16.4821 25.5769 17.1813 26.1523 17.7567C26.4427 18.0471 26.5792 18.3278 26.6444 18.5236C26.6774 18.6225 26.6926 18.7011 26.6996 18.7497C26.7031 18.7739 26.7043 18.7906 26.7049 18.7982L26.705 18.8003V38.0673C25.7861 37.3063 24.2055 36.6946 21.5075 36.6946C18.8096 36.6946 17.229 37.3063 16.31 38.0673ZM27.2825 40.1594C26.705 40.1594 26.705 40.1599 26.705 40.1605V40.1634V40.1664L26.7052 40.1697C26.7052 40.1706 26.7053 40.1702 26.705 40.1664C26.7045 40.1588 26.7031 40.1412 26.6996 40.1169C26.6926 40.0684 26.6774 39.9897 26.6444 39.8909C26.5792 39.6951 26.4427 39.4144 26.1523 39.1241C25.5769 38.5488 24.306 37.8496 21.5075 37.8496C18.7091 37.8496 17.4381 38.5488 16.8627 39.1241C16.5724 39.4144 16.4359 39.6951 16.3706 39.8909C16.3376 39.9897 16.3225 40.0684 16.3155 40.1169C16.312 40.1412 16.3107 40.1578 16.3102 40.1654C16.3099 40.1692 16.3099 40.1706 16.3099 40.1697L16.3102 40.1654L16.31 40.1634V40.1615C16.31 40.1609 16.31 40.1594 15.7325 40.1594H15.155V18.7921H15.7325C15.155 18.7921 15.155 18.7927 15.155 18.7921V18.7898V18.7871L15.1552 18.7809L15.1554 18.7653C15.1559 18.7534 15.1566 18.7387 15.1577 18.7213C15.1601 18.6866 15.1643 18.6411 15.1721 18.5863C15.1878 18.4771 15.2176 18.3301 15.2749 18.1584C15.3901 17.8127 15.6145 17.3716 16.046 16.9401C16.9144 16.0717 18.531 15.3271 21.5075 15.3271C24.4841 15.3271 26.1006 16.0717 26.9691 16.9401C27.0888 17.0598 27.1925 17.1803 27.2825 17.2993C27.3725 17.1803 27.4763 17.0598 27.596 16.9401C28.4644 16.0717 30.081 15.3271 33.0575 15.3271C36.0341 15.3271 37.6506 16.0717 38.5191 16.9401C38.9505 17.3716 39.175 17.8127 39.2902 18.1584C39.3474 18.3301 39.3773 18.4771 39.393 18.5863C39.4008 18.6411 39.405 18.6866 39.4074 18.7213C39.4085 18.7387 39.4092 18.7534 39.4096 18.7653L39.4099 18.7809L39.41 18.7871V18.7898C39.41 18.7903 39.41 18.7921 38.8325 18.7921H39.41V40.1582L38.8325 40.1594C38.255 40.1594 38.255 40.1599 38.255 40.1605V40.1634V40.1664L38.2552 40.1697C38.2552 40.1706 38.2553 40.1702 38.255 40.1664C38.2545 40.1588 38.2531 40.1412 38.2496 40.1169C38.2426 40.0684 38.2274 39.9897 38.1944 39.8909C38.1292 39.6951 37.9927 39.4144 37.7023 39.1241C37.1269 38.5488 35.856 37.8496 33.0575 37.8496C30.2591 37.8496 28.9881 38.5488 28.4127 39.1241C28.1224 39.4144 27.9859 39.6951 27.9206 39.8909C27.8876 39.9897 27.8725 40.0684 27.8655 40.1169C27.862 40.1412 27.8607 40.1578 27.8602 40.1654C27.86 40.1673 27.8599 40.1687 27.8599 40.1694L27.8602 40.1654L27.86 40.1634V40.1615C27.86 40.1609 27.86 40.1594 27.2825 40.1594ZM27.8599 40.1694C27.8599 40.1699 27.8599 40.17 27.8599 40.1694V40.1694ZM27.86 18.8003V38.0673C28.779 37.3063 30.3596 36.6946 33.0575 36.6946C35.7555 36.6946 37.3361 37.3063 38.255 38.0673V18.8003L38.2549 18.7982C38.2543 18.7906 38.2531 18.7739 38.2496 18.7497C38.2426 18.7011 38.2274 18.6225 38.1944 18.5236C38.1292 18.3278 37.9927 18.0471 37.7023 17.7567C37.1269 17.1813 35.856 16.4821 33.0575 16.4821C30.2591 16.4821 28.9881 17.1813 28.4127 17.7567C28.1224 18.0471 27.9859 18.3278 27.9206 18.5236C27.8876 18.6225 27.8725 18.7011 27.8655 18.7497C27.862 18.7739 27.8607 18.7906 27.8602 18.7982L27.86 18.8003Z" fill="black"/>
</g>
</g>
</g>
<defs>
<clipPath id="clip0_61_413">
<rect y="0.171875" width="56" height="56" rx="10" fill="white"/>
</clipPath>
<clipPath id="clip1_61_413">
<rect width="56" height="56" fill="white" transform="translate(0 0.171875)"/>
</clipPath>
<clipPath id="clip2_61_413">
<rect width="56" height="56" fill="white" transform="translate(0 0.171875)"/>
</clipPath>
</defs>
</svg>
