<svg width="57" height="57" viewBox="0 0 57 57" fill="none" xmlns="http://www.w3.org/2000/svg">
<g clip-path="url(#clip0_61_385)">
<g clip-path="url(#clip1_61_385)">
<g clip-path="url(#clip2_61_385)">
<path d="M0.328125 11.5906C0.328125 5.40503 5.34253 0.390625 11.5281 0.390625H45.1281C51.3137 0.390625 56.3281 5.40503 56.3281 11.5906V45.1906C56.3281 51.3762 51.3137 56.3906 45.1281 56.3906H11.5281C5.34253 56.3906 0.328125 51.3762 0.328125 45.1906V11.5906Z" fill="white"/>
<path d="M43.5786 12.0576H37.3091V28.8164H43.5786V12.0576Z" fill="#00CEC8"/>
<path d="M35.1992 20.8574H28.9297V28.8157H35.1992V20.8574Z" fill="#00CEC8"/>
<path d="M27.2453 20.8574H20.9758V28.8157H27.2453V20.8574Z" fill="#00CEC8"/>
<path d="M13.0176 12.0576V44.7243H36.8279H37.3092H43.6389V31.0423H21.1563V37.011H37.3092V38.7599H19.3472V12.0576H13.0176Z" fill="#00CEC8"/>
<path d="M11.528 1.55697H45.128V-0.776367H11.528V1.55697ZM55.1614 11.5903V45.1903H57.4947V11.5903H55.1614ZM45.128 55.2237H11.528V57.5569H45.128V55.2237ZM1.49471 45.1903V11.5903H-0.838623V45.1903H1.49471ZM11.528 55.2237C5.98679 55.2237 1.49471 50.7315 1.49471 45.1903H-0.838623C-0.838623 52.0202 4.69811 57.5569 11.528 57.5569V55.2237ZM55.1614 45.1903C55.1614 50.7315 50.6692 55.2237 45.128 55.2237V57.5569C51.9579 57.5569 57.4947 52.0202 57.4947 45.1903H55.1614ZM45.128 1.55697C50.6692 1.55697 55.1614 6.04904 55.1614 11.5903H57.4947C57.4947 4.76037 51.9579 -0.776367 45.128 -0.776367V1.55697ZM11.528 -0.776367C4.69811 -0.776367 -0.838623 4.76037 -0.838623 11.5903H1.49471C1.49471 6.04904 5.98679 1.55697 11.528 1.55697V-0.776367Z" fill="#EBEEF1"/>
</g>
</g>
</g>
<defs>
<clipPath id="clip0_61_385">
<rect x="0.328125" y="0.390625" width="56" height="56" rx="10" fill="white"/>
</clipPath>
<clipPath id="clip1_61_385">
<rect width="56" height="56" fill="white" transform="translate(0.328125 0.390625)"/>
</clipPath>
<clipPath id="clip2_61_385">
<rect width="56" height="56" fill="white" transform="translate(0.328125 0.390625)"/>
</clipPath>
</defs>
</svg>
