<svg width="57" height="57" viewBox="0 0 57 57" fill="none" xmlns="http://www.w3.org/2000/svg">
<g clip-path="url(#clip0_61_423)">
<g clip-path="url(#clip1_61_423)">
<g clip-path="url(#clip2_61_423)">
<path d="M45.1281 0.171875H11.5281C5.34254 0.171875 0.328125 5.18629 0.328125 11.3719V44.9719C0.328125 51.1575 5.34254 56.1719 11.5281 56.1719H45.1281C51.3137 56.1719 56.3281 51.1575 56.3281 44.9719V11.3719C56.3281 5.18629 51.3137 0.171875 45.1281 0.171875Z" fill="#780016"/>
<path fill-rule="evenodd" clip-rule="evenodd" d="M22.1281 19.0723C22.1281 17.1393 23.6952 15.5723 25.6281 15.5723C26.9013 15.5723 28.0157 16.2521 28.6282 17.2685C29.2406 16.2521 30.355 15.5723 31.6281 15.5723C33.5612 15.5723 35.1281 17.1393 35.1281 19.0723C35.1281 20.0516 34.7259 20.9371 34.0777 21.5722H39.6281L40.1282 22.0723V27.0723L39.6281 27.5722H38.1282V39.0722L37.6282 39.5723H19.6282L19.1282 39.0722V27.5722H17.6281L17.1282 27.0723V22.0723L17.6281 21.5722H23.1787C22.5304 20.9371 22.1281 20.0516 22.1281 19.0723ZM31.6281 22.5723H29.1281H28.6282H28.1281H25.6281H18.1282V26.5722H19.6282H37.6282H39.1282V22.5723H31.6281ZM28.1281 21.5722V19.0723C28.1281 17.6916 27.009 16.5723 25.6281 16.5723C24.2475 16.5723 23.1282 17.6916 23.1282 19.0723C23.1282 20.4529 24.2475 21.5722 25.6281 21.5722H28.1281ZM31.6281 21.5722C33.0089 21.5722 34.1282 20.4529 34.1282 19.0723C34.1282 17.6916 33.0089 16.5723 31.6281 16.5723C30.2474 16.5723 29.1281 17.6916 29.1281 19.0723V21.5722H31.6281ZM37.1282 27.5722H29.1281V38.5723H37.1282V27.5722ZM28.1281 27.5722H20.1282V38.5723H28.1281V27.5722Z" fill="white"/>
</g>
</g>
</g>
<defs>
<clipPath id="clip0_61_423">
<rect x="0.328125" y="0.171875" width="56" height="56" rx="10" fill="white"/>
</clipPath>
<clipPath id="clip1_61_423">
<rect width="56" height="56" fill="white" transform="translate(0.328125 0.171875)"/>
</clipPath>
<clipPath id="clip2_61_423">
<rect width="56" height="56" fill="white" transform="translate(0.328125 0.171875)"/>
</clipPath>
</defs>
</svg>
