<svg width="56" height="57" viewBox="0 0 56 57" fill="none" xmlns="http://www.w3.org/2000/svg">
<g clip-path="url(#clip0_61_445)">
<g clip-path="url(#clip1_61_445)">
<g clip-path="url(#clip2_61_445)">
<path d="M0 10.2865C0 5.1318 4.17867 0.953125 9.33333 0.953125H46.6667C51.8214 0.953125 56 5.1318 56 10.2865V47.6198C56 52.7745 51.8214 56.9531 46.6667 56.9531H9.33333C4.17867 56.9531 0 52.7745 0 47.6198V10.2865Z" fill="#F1EFE3"/>
<path d="M18.8226 25.9502C19.3164 27.5877 19.9142 29.1235 20.5641 30.605C21.6817 33.2585 22.4355 34.6621 23.4775 36.4035C24.7511 38.4828 26.157 40.8505 28.4702 42.3839C30.1597 43.5016 32.2153 44.0734 34.1907 44.0734C36.9742 44.0734 39.3655 42.8518 40.9013 41.4199C42.4089 40.0164 44.3606 37.3109 44.3606 32.0322C44.3606 30.2128 45.1663 28.651 45.7641 27.4034C45.7641 27.3773 45.7901 27.3254 45.842 27.2215C46.0759 26.7016 46.3619 26.0259 46.3619 25.35C46.3619 24.8562 46.2319 24.2844 45.894 23.7905C45.3742 22.9068 44.4385 22.5949 43.5784 22.5949C41.577 22.5949 40.1972 23.9984 39.4953 25.4304L39.2614 25.8982C38.9756 25.4823 38.6896 25.0405 38.4557 24.6506C37.728 23.3771 37.3122 22.5193 36.9483 21.4254C36.6623 20.5676 36.4284 19.5799 36.2724 18.7718C35.8306 16.2223 35.1028 15.3905 33.9048 15.0787C33.0212 14.8448 31.9814 15.0267 31.2253 15.5205C30.7079 14.3509 29.8241 13.8311 28.6522 13.8311C26.9887 13.8311 25.4789 14.9227 25.4789 16.7705C25.4789 17.0044 25.5048 17.2383 25.5308 17.5243C25.3229 17.4722 25.089 17.4462 24.8551 17.4462C23.0617 17.4462 21.7337 18.6938 21.7337 20.3856C21.7337 20.7755 21.7857 21.2173 21.9157 21.7372C21.7597 21.7112 21.6037 21.7112 21.4478 21.7112C20.5641 21.7632 19.7584 22.1011 19.1841 22.8028C18.6147 23.4787 18.3808 24.5183 18.8226 25.9502Z" fill="#1F1F1A"/>
<path d="M20.3041 25.4816C20.0702 24.7278 20.0962 24.156 20.3822 23.7921C20.668 23.4543 21.0579 23.2983 21.5257 23.2723C22.3316 23.2464 22.6434 23.8182 23.1112 25.2997C23.3972 26.2354 23.969 27.5893 24.3068 28.3431C24.7488 29.2527 25.3725 30.4743 25.6584 30.8926C25.8923 31.2565 26.1002 31.3604 26.3342 31.3604C26.7501 31.3604 27.0619 31.1265 27.0619 30.7106C27.0619 30.4767 26.828 30.0868 26.698 29.8529C26.4641 29.411 25.9703 28.5273 25.6324 27.7736C25.2685 26.9418 24.8527 25.9022 24.5147 24.9642C24.3068 24.4183 24.0729 23.6386 23.839 22.8588C23.4751 21.6632 23.2932 20.9354 23.2932 20.3872C23.2932 19.5555 23.9169 19.0097 24.8527 19.0097C25.5285 19.0097 25.9703 19.3476 26.2562 20.5692C26.4901 21.6868 26.9061 23.5086 27.5039 24.9382C27.8936 25.8738 28.4655 27.1238 28.8034 27.7476C29.0113 28.1115 29.2452 28.4233 29.2452 28.5533C29.2452 28.7353 28.9074 29.0211 28.6214 29.411C28.4395 29.645 28.3616 29.8009 28.3616 29.9828C28.3616 30.1388 28.4655 30.2948 28.6214 30.5027C28.7774 30.7106 28.9334 30.9186 29.1153 30.9186C29.2452 30.9186 29.3233 30.8666 29.4012 30.7626C30.2069 29.7489 31.0907 29.0472 32.1067 28.473C33.3023 27.7972 34.5263 27.4593 35.4879 27.2514C35.9558 27.1475 36.0857 27.0434 36.0857 26.7836C36.0857 26.4716 35.8518 26.2897 35.54 26.2637C35.3061 26.2377 35.098 26.2637 34.7342 26.2897C34.4743 26.3156 34.3444 26.1857 34.1884 25.8478C33.7206 24.8601 32.8108 23.1943 32.265 21.0631C32.0311 20.1533 31.8231 19.1916 31.6932 17.9417C31.6152 17.3699 31.7191 17.162 32.0051 16.902C32.369 16.5901 33.0188 16.4601 33.5125 16.5901C34.1105 16.7461 34.4223 17.2139 34.7342 19.0356C34.8901 19.8934 35.1501 20.985 35.4619 21.9231C35.8518 23.1187 36.3457 24.1088 37.0995 25.4343C37.5153 26.1621 38.0351 26.9159 38.581 27.646C38.4769 27.9578 38.2951 28.1659 37.6973 28.6597C37.0995 29.1534 36.5017 29.6733 35.9558 30.635C35.5659 31.3367 35.384 32.1165 35.384 32.6364C35.384 33.1303 35.4879 33.2342 35.7999 33.2342C36.3457 33.2342 36.7875 33.1303 36.8135 32.8962C36.9435 31.9606 37.0994 31.3628 37.6192 30.6587C37.9312 30.2688 38.4769 29.7749 38.9189 29.385C39.7506 28.7093 40.0364 28.3194 40.3224 27.3577C40.4523 26.9159 40.6083 26.5 40.8162 26.1101C41.3101 25.2004 42.1938 24.1608 43.5736 24.1608C44.0156 24.1608 44.3795 24.2907 44.6134 24.6545C44.7433 24.8626 44.7953 25.1484 44.7953 25.3564C44.7953 25.8242 44.4574 26.474 44.3014 26.7859C43.7296 28.0075 42.794 29.8812 42.794 32.0386C42.794 36.7454 41.1305 39.087 39.8285 40.2826C38.555 41.4782 36.5512 42.5203 34.1861 42.5203C32.4966 42.5203 30.7528 42.0264 29.3233 41.0907C27.3219 39.7651 26.0719 37.6834 24.7984 35.6042C23.7846 33.9147 23.0829 32.5867 21.9889 30.0136C21.3722 28.5226 20.798 27.0671 20.3041 25.4816Z" fill="#FFE450"/>
<path d="M26.9888 16.7702C26.9888 15.7825 27.8984 15.3926 28.6522 15.3926C29.4579 15.3926 29.7439 15.7825 29.9518 16.6142C30.1338 17.2899 30.2117 17.9137 30.2896 18.6415C30.3937 19.3693 30.7576 21.0352 30.8615 21.451C31.2513 22.8805 32.0311 24.5724 32.9668 26.5997C32.421 26.7816 31.6932 27.0935 31.1994 27.3535C30.5756 27.6913 30.4456 27.6913 30.1857 27.1975C29.6399 26.1838 29.25 25.4301 28.9121 24.544C28.6262 23.8163 28.3404 22.9845 28.1064 22.0204C27.7165 20.383 27.6645 19.9152 27.3527 19.159C27.1707 18.3816 26.9888 17.4199 26.9888 16.7702Z" fill="#FFE450"/>
<path d="M17.6789 34.1797C17.1283 34.5199 14.2101 36.0487 13.551 36.292C13.0807 36.4669 12.5704 36.4244 12.2703 35.5359C11.9016 34.4373 12.4192 34.1773 13.1564 33.8914C13.8084 33.6386 16.5139 32.6603 17.1425 32.4902C17.5844 32.372 17.8915 32.5209 18.1042 33.0525C18.3381 33.6362 18.1775 33.8701 17.6789 34.1797Z" fill="#1F1F1A"/>
<path d="M15.2734 27.9868C14.489 28.0081 11.2306 27.8687 10.4863 27.7954C9.83887 27.7316 9.57659 27.4457 9.64748 26.5077C9.72309 25.5011 10.1153 25.4396 10.7509 25.5011C11.4882 25.572 14.9026 26.1272 15.446 26.295C16.0083 26.4699 16.0863 26.725 16.0178 27.2165C15.9304 27.8545 15.6421 27.975 15.2734 27.9868Z" fill="#1F1F1A"/>
<path d="M15.6776 21.3901C14.7798 21.1065 12.1144 19.4926 11.4197 19.0768C10.7912 18.6987 10.7108 18.3585 11.148 17.5291C11.5355 16.7966 11.9655 16.6691 12.6035 16.9998C13.3431 17.3849 15.954 19.417 16.4526 19.8187C16.9346 20.2063 16.8684 20.4071 16.6156 20.9057C16.3628 21.4042 16.1266 21.5319 15.6776 21.3901Z" fill="#1F1F1A"/>
</g>
</g>
</g>
<defs>
<clipPath id="clip0_61_445">
<rect y="0.953125" width="56" height="56" rx="10" fill="white"/>
</clipPath>
<clipPath id="clip1_61_445">
<rect width="56" height="56" fill="white" transform="translate(0 0.953125)"/>
</clipPath>
<clipPath id="clip2_61_445">
<rect width="56" height="56" fill="white" transform="translate(0 0.953125)"/>
</clipPath>
</defs>
</svg>
