<svg width="57" height="57" viewBox="0 0 57 57" fill="none" xmlns="http://www.w3.org/2000/svg">
<g clip-path="url(#clip0_61_460)">
<g clip-path="url(#clip1_61_460)">
<g clip-path="url(#clip2_61_460)">
<path d="M0.328125 10.2865C0.328125 5.1318 4.5068 0.953125 9.66146 0.953125H46.9948C52.1495 0.953125 56.3281 5.1318 56.3281 10.2865V47.6198C56.3281 52.7745 52.1495 56.9531 46.9948 56.9531H9.66146C4.5068 56.9531 0.328125 52.7745 0.328125 47.6198V10.2865Z" fill="black"/>
<path d="M15.3521 41.513C18.1253 37.0195 21.2158 34.9155 26.0663 36.175C29.0163 36.9436 31.9065 38.0375 35.4689 38.0375C39.7306 38.0375 41.7383 37.1725 42.2719 36.8916C42.3681 36.8427 42.425 36.7495 42.425 36.639V28.7803C42.425 28.6415 42.2797 28.5484 42.1582 28.6067C41.4763 28.935 39.4654 29.6943 35.4704 29.6943C30.1291 29.6943 26.311 27.1846 21.5016 27.1846C17.4308 27.1846 15.3047 28.1648 14.7506 28.4583C14.6528 28.5105 14.5959 28.6036 14.5959 28.7109V41.4878C14.5959 41.7828 15.1026 41.9139 15.3521 41.513Z" fill="white"/>
<path d="M42.4186 25.5746C42.4186 25.6787 42.3603 25.775 42.2703 25.8239C41.7305 26.1001 39.7259 26.9666 35.4641 26.9666C30.1259 26.9666 26.3046 24.4602 21.4953 24.4602C17.6833 24.4602 15.5762 25.3157 14.8691 25.6677C14.7412 25.7308 14.5959 25.6439 14.5959 25.5019V17.6401C14.5959 17.5359 14.6512 17.4428 14.7443 17.3939C15.2984 17.0924 17.4245 16.1201 21.4953 16.1201C26.3031 16.1201 30.1259 18.6266 35.4641 18.6266C39.459 18.6266 41.4731 17.8642 42.1488 17.5438C42.2734 17.4854 42.4186 17.5754 42.4186 17.7127V25.5746Z" fill="white"/>
</g>
</g>
</g>
<defs>
<clipPath id="clip0_61_460">
<rect x="0.328125" y="0.953125" width="56" height="56" rx="10" fill="white"/>
</clipPath>
<clipPath id="clip1_61_460">
<rect width="56" height="56" fill="white" transform="translate(0.328125 0.953125)"/>
</clipPath>
<clipPath id="clip2_61_460">
<rect width="56" height="56" fill="white" transform="translate(0.328125 0.953125)"/>
</clipPath>
</defs>
</svg>
