<svg width="57" height="57" viewBox="0 0 57 57" fill="none" xmlns="http://www.w3.org/2000/svg">
<g clip-path="url(#clip0_61_471)">
<g clip-path="url(#clip1_61_471)">
<g clip-path="url(#clip2_61_471)">
<path d="M0.65625 10.2865C0.65625 5.1318 4.83492 0.953125 9.98958 0.953125H47.3229C52.4776 0.953125 56.6562 5.1318 56.6562 10.2865V47.6198C56.6562 52.7745 52.4776 56.9531 47.3229 56.9531H9.98958C4.83492 56.9531 0.65625 52.7745 0.65625 47.6198V10.2865Z" fill="#992C87"/>
<path fill-rule="evenodd" clip-rule="evenodd" d="M23.9897 28.9528C25.2784 28.9528 26.323 27.9082 26.323 26.6195C26.323 25.3308 25.2784 24.2861 23.9897 24.2861C22.701 24.2861 21.6563 25.3308 21.6563 26.6195C21.6563 27.9082 22.701 28.9528 23.9897 28.9528ZM23.9897 30.1195C19.323 30.1195 19.323 33.6195 19.323 33.6195H28.6563C28.6563 33.6195 28.6563 30.1195 23.9897 30.1195Z" fill="white"/>
<path fill-rule="evenodd" clip-rule="evenodd" d="M30.9895 26.6198C30.9895 25.9754 31.5118 25.4531 32.1562 25.4531H36.8228C37.4672 25.4531 37.9895 25.9754 37.9895 26.6198C37.9895 27.2641 37.4672 27.7865 36.8228 27.7865H32.1562C31.5118 27.7865 30.9895 27.2641 30.9895 26.6198Z" fill="white"/>
<path fill-rule="evenodd" clip-rule="evenodd" d="M30.9895 31.2868C30.9895 30.6424 31.5118 30.1201 32.1562 30.1201H36.8228C37.4672 30.1201 37.9895 30.6424 37.9895 31.2868C37.9895 31.9311 37.4672 32.4535 36.8228 32.4535H32.1562C31.5118 32.4535 30.9895 31.9311 30.9895 31.2868Z" fill="white"/>
<path fill-rule="evenodd" clip-rule="evenodd" d="M37.9896 19.0361H19.3229C17.7121 19.0361 16.4062 20.342 16.4062 21.9528V35.9528C16.4062 37.5636 17.7121 38.8695 19.3229 38.8695H37.9896C39.6004 38.8695 40.9062 37.5636 40.9062 35.9528V21.9528C40.9062 20.342 39.6004 19.0361 37.9896 19.0361ZM19.3229 17.2861C16.7456 17.2861 14.6562 19.3755 14.6562 21.9528V35.9528C14.6562 38.5301 16.7456 40.6195 19.3229 40.6195H37.9896C40.5669 40.6195 42.6562 38.5301 42.6562 35.9528V21.9528C42.6562 19.3755 40.5669 17.2861 37.9896 17.2861H19.3229Z" fill="white"/>
</g>
</g>
</g>
<defs>
<clipPath id="clip0_61_471">
<rect x="0.65625" y="0.953125" width="56" height="56" rx="10" fill="white"/>
</clipPath>
<clipPath id="clip1_61_471">
<rect width="56" height="56" fill="white" transform="translate(0.65625 0.953125)"/>
</clipPath>
<clipPath id="clip2_61_471">
<rect width="56" height="56" fill="white" transform="translate(0.65625 0.953125)"/>
</clipPath>
</defs>
</svg>
