<svg width="16" height="17" viewBox="0 0 16 17" fill="none" xmlns="http://www.w3.org/2000/svg">
<path d="M5.21908 13.7298C4.92752 13.7298 4.67935 13.6274 4.47457 13.4226C4.26979 13.2179 4.1674 12.9699 4.1674 12.6788V4.6187H3.5166V3.96791H6.11978V3.4668H10.0245V3.96791H12.6277V4.6187H11.9769V12.6788C11.9769 12.9781 11.8767 13.2283 11.6763 13.4291C11.4758 13.63 11.2255 13.7302 10.9252 13.7298H5.21908ZM11.3261 4.6187H4.81819V12.6788C4.81819 12.7955 4.85572 12.8914 4.93078 12.9664C5.00583 13.0415 5.10193 13.079 5.21908 13.079H10.9259C11.0257 13.079 11.1174 13.0374 11.2012 12.9541C11.2849 12.8708 11.3266 12.7788 11.3261 12.6781V4.6187ZM6.64562 11.7774H7.29641V5.92029H6.64562V11.7774ZM8.8479 11.7774H9.4987V5.92029H8.8479V11.7774Z" fill="#9EA099"/>
</svg>
