<svg width="182" height="42" viewBox="0 0 182 42" fill="none" xmlns="http://www.w3.org/2000/svg">
<rect width="181.328" height="36" transform="translate(0.328125 3)" fill="black"/>
<g clip-path="url(#clip0_179_1279)">
<path d="M0.328125 3V0C5.32812 0 5.32812 2 10.3281 2C15.3281 2 15.3281 0 20.3281 0C25.3281 0 25.3281 2 30.3281 2C35.3281 2 35.3281 0 40.3281 0C45.3281 0 45.3281 2 50.3281 2C55.3281 2 55.3281 0 60.3281 0C65.3281 0 65.3281 2 70.3281 2C75.3281 2 75.3281 0 80.3281 0C85.3281 0 85.3281 2 90.3281 2C95.3281 2 95.3281 0 100.328 0C105.428 0 105.428 2 110.328 2C115.328 2 115.328 0 120.328 0H120.428C125.428 0 125.428 2 130.328 2C135.328 2 135.328 0 140.328 0H140.428C145.428 0 145.428 2 150.328 2C155.328 2 155.328 0 160.328 0H160.428C165.428 0 165.428 2 170.328 2C175.328 2 175.328 0 180.328 0H180.428C185.428 0 185.428 2 190.328 2C195.328 2 195.328 0 200.328 0H200.428C205.428 0 205.428 2 210.328 2C215.328 2 215.328 0 220.328 0H220.428C225.428 0 225.428 2 230.328 2C235.328 2 235.328 0 240.328 0H240.428C245.428 0 245.428 2 250.328 2C255.328 2 255.328 0 260.328 0H260.428C265.428 0 265.428 2 270.328 2C275.328 2 275.328 0 280.328 0H280.428C285.428 0 285.428 2 290.328 2C295.328 2 295.328 0 300.328 0H300.428C305.428 0 305.428 2 310.328 2C315.328 2 315.328 0 320.328 0H320.428C325.428 0 325.428 2 330.328 2C335.328 2 335.328 0 340.328 0H340.428C345.428 0 345.428 2 350.328 2C355.328 2 355.328 0 360.328 0H360.428C365.428 0 365.428 2 370.328 2C375.328 2 375.328 0 380.328 0H380.428C385.428 0 385.428 2 390.328 2H390.428C395.428 2 395.428 0 400.428 0C405.428 0 405.428 2 410.428 2C415.428 2 415.428 0 420.428 0C425.428 0 425.428 2 430.428 2C435.428 2 435.428 0 440.428 0C445.428 0 445.428 2 450.428 2C455.428 2 455.428 0 460.428 0C465.428 0 465.428 2 470.428 2C475.428 2 475.428 0 480.428 0C485.428 0 485.428 2 490.428 2C495.428 2 495.428 0 500.428 0C505.428 0 505.428 2 510.428 2C515.428 2 515.428 0 520.428 0C525.428 0 525.428 2 530.428 2C535.428 2 535.428 0 540.428 0C545.428 0 545.428 2 550.428 2C555.428 2 555.428 0 560.428 0C565.428 0 565.428 2 570.428 2C575.428 2 575.428 0 580.428 0C585.428 0 585.428 2 590.428 2C595.428 2 595.428 0 600.428 0C605.428 0 605.428 2 610.428 2C615.428 2 615.428 0 620.428 0C625.428 0 625.428 2 630.428 2C635.428 2 635.428 0 640.428 0V3H0.328125Z" fill="black"/>
</g>
<g clip-path="url(#clip1_179_1279)">
<path d="M640.328 38V41C635.328 41 635.328 39 630.328 39C625.328 39 625.328 41 620.328 41C615.328 41 615.328 39 610.328 39C605.328 39 605.328 41 600.328 41C595.328 41 595.328 39 590.328 39C585.328 39 585.328 41 580.328 41C575.328 41 575.328 39 570.328 39C565.328 39 565.328 41 560.328 41C555.328 41 555.328 39 550.328 39C545.328 39 545.328 41 540.328 41C535.228 41 535.228 39 530.328 39C525.328 39 525.328 41 520.328 41H520.228C515.228 41 515.228 39 510.328 39C505.328 39 505.328 41 500.328 41H500.228C495.228 41 495.228 39 490.328 39C485.328 39 485.328 41 480.328 41H480.228C475.228 41 475.228 39 470.328 39C465.328 39 465.328 41 460.328 41H460.228C455.228 41 455.228 39 450.328 39C445.328 39 445.328 41 440.328 41H440.228C435.228 41 435.228 39 430.328 39C425.328 39 425.328 41 420.328 41H420.228C415.228 41 415.228 39 410.328 39C405.328 39 405.328 41 400.328 41H400.228C395.228 41 395.228 39 390.328 39C385.328 39 385.328 41 380.328 41H380.228C375.228 41 375.228 39 370.328 39C365.328 39 365.328 41 360.328 41H360.228C355.228 41 355.228 39 350.328 39C345.328 39 345.328 41 340.328 41H340.228C335.228 41 335.228 39 330.328 39C325.328 39 325.328 41 320.328 41H320.228C315.228 41 315.228 39 310.328 39C305.328 39 305.328 41 300.328 41H300.228C295.228 41 295.228 39 290.328 39C285.328 39 285.328 41 280.328 41H280.228C275.228 41 275.228 39 270.328 39C265.328 39 265.328 41 260.328 41H260.228C255.228 41 255.228 39 250.328 39H250.228C245.228 39 245.228 41 240.228 41C235.228 41 235.228 39 230.228 39C225.228 39 225.228 41 220.228 41C215.228 41 215.228 39 210.228 39C205.228 39 205.228 41 200.228 41C195.228 41 195.228 39 190.228 39C185.228 39 185.228 41 180.228 41C175.228 41 175.228 39 170.228 39C165.228 39 165.228 41 160.228 41C155.228 41 155.228 39 150.228 39C145.228 39 145.228 41 140.228 41C135.228 41 135.228 39 130.228 39C125.228 39 125.228 41 120.228 41C115.228 41 115.228 39 110.228 39C105.228 39 105.228 41 100.228 41C95.2281 41 95.2281 39 90.2281 39C85.2281 39 85.2281 41 80.2281 41C75.2281 41 75.2281 39 70.2281 39C65.2281 39 65.2281 41 60.2281 41C55.2281 41 55.2281 39 50.2281 39C45.2281 39 45.2281 41 40.2281 41C35.2281 41 35.2281 39 30.2281 39C25.2281 39 25.2281 41 20.2281 41C15.2281 41 15.2281 39 10.2281 39C5.22812 39 5.32812 41 0.328125 41V38H640.328Z" fill="black"/>
</g>
<defs>
<clipPath id="clip0_179_1279">
<rect width="181.328" height="4" fill="white" transform="translate(0.328125)"/>
</clipPath>
<clipPath id="clip1_179_1279">
<rect width="181.328" height="4" fill="white" transform="translate(0.328125 38)"/>
</clipPath>
</defs>
</svg>
