<svg width="32" height="33" viewBox="0 0 32 33" fill="none" xmlns="http://www.w3.org/2000/svg">
<g clip-path="url(#clip0_61_228)">
<path d="M24.8307 11.073C24.6176 10.8659 24.3185 10.7718 24.0259 10.8199C23.7327 10.8679 23.4795 11.0519 23.3435 11.316C22.8757 12.2247 22.2816 13.0598 21.5826 13.798C21.6523 13.2647 21.6874 12.7283 21.6874 12.1904C21.6874 11.1584 21.5491 10.0963 21.2761 9.03335C20.3787 5.54204 18.0256 2.58948 14.8203 0.932789C14.5412 0.788601 14.2087 0.793664 13.9342 0.946289C13.6596 1.09898 13.4798 1.37891 13.4552 1.69204C13.2053 4.86479 11.5711 7.75129 8.96899 9.61329C8.93455 9.6381 8.90037 9.66323 8.86618 9.68823C8.79537 9.74004 8.72862 9.78904 8.66624 9.83016C8.65649 9.83666 8.6468 9.84329 8.6373 9.8501C7.0008 11.0218 5.65049 12.5837 4.73218 14.3674C3.79905 16.1817 3.32593 18.1286 3.32593 20.1539C3.32593 21.1857 3.46424 22.2477 3.73705 23.3109C5.17674 28.9144 10.2195 32.828 16.0001 32.828C22.9883 32.828 28.6736 27.1424 28.6736 20.1539C28.6736 16.7077 27.3088 13.4827 24.8307 11.073Z" fill="#28A263"/>
<circle cx="15.0589" cy="19.6519" r="3.76471" fill="white"/>
</g>
<defs>
<clipPath id="clip0_61_228">
<rect width="32" height="32" fill="white" transform="translate(0 0.828125)"/>
</clipPath>
</defs>
</svg>

