<svg width="32" height="32" viewBox="0 0 32 32" fill="none" xmlns="http://www.w3.org/2000/svg">
<path d="M22.513 8.96432C22.3197 8.78309 22.0483 8.70073 21.7828 8.74284C21.5167 8.78478 21.287 8.94584 21.1636 9.17695C20.7392 9.97205 20.2001 10.7027 19.5658 11.3486C19.629 10.8821 19.6609 10.4127 19.6609 9.94203C19.6609 9.03897 19.5354 8.10966 19.2877 7.17959C18.4734 4.12469 16.3382 1.54119 13.4298 0.0915808C13.1766 -0.0345836 12.8749 -0.0301539 12.6257 0.103393C12.3766 0.236995 12.2135 0.481941 12.1911 0.755926C11.9644 3.53209 10.4815 6.05778 8.12042 7.68704C8.08917 7.70875 8.05815 7.73073 8.02713 7.75261C7.96287 7.79795 7.90231 7.84082 7.84571 7.8768C7.83686 7.88249 7.82807 7.88829 7.81945 7.89425C6.33452 8.91948 5.10927 10.2861 4.27601 11.8469C3.42931 13.4344 3 15.138 3 16.9101C3 17.8129 3.1255 18.7422 3.37305 19.6724C4.6794 24.5756 9.2551 28 14.5003 28C20.8413 28 26 23.0251 26 16.9101C26 13.8946 24.7616 11.0728 22.513 8.96432Z" fill="#1E1E1E"/>
<ellipse cx="13.9434" cy="16.4709" rx="3.41603" ry="3.29413" fill="white"/>
</svg>

