<svg width="134" height="217" viewBox="0 0 134 217" fill="none" xmlns="http://www.w3.org/2000/svg">
<g clip-path="url(#clip0_61_491)">
<path d="M112.568 14H22.4296C10.5937 14 0.998779 24.7353 0.998779 37.9779V181.022C0.998779 194.265 10.5937 205 22.4296 205H112.568C124.404 205 133.999 194.265 133.999 181.022V37.9779C133.999 24.7353 124.404 14 112.568 14Z" fill="#4CB57F"/>
<path d="M58.7031 182H60.1194V180.397C62.2984 180.168 63.7147 179.023 63.7147 177.305C63.7147 175.588 62.7342 174.672 60.991 174.099L60.1194 173.87V170.321C61.2089 170.55 61.8626 171.351 61.9715 172.267H63.6058C63.4968 170.55 61.9715 169.061 60.1194 168.718V167H58.7031V168.718C56.742 168.947 55.4346 170.092 55.4346 171.809C55.4346 173.527 56.3062 174.443 58.4852 174.901H58.7031V178.794C57.6136 178.45 56.8509 177.649 56.8509 176.504H54.9988C55.1077 178.565 56.4151 179.939 58.5941 180.282V182H58.7031ZM56.9599 171.809C56.9599 170.893 57.7225 170.321 58.7031 170.206V173.412C57.6136 173.069 56.9599 172.611 56.9599 171.809ZM60.2284 178.908V175.359C61.8626 175.817 62.2984 176.389 62.2984 177.191C62.2984 178.107 61.4268 178.794 60.1194 178.908H60.2284ZM65.0221 178.45V180.168H72.6486V178.679H67.2011C70.9054 176.389 72.6486 174.328 72.6486 172.267C72.6486 170.092 71.1233 168.603 68.8354 168.603C66.6564 168.603 65.0221 170.206 64.9132 172.382H66.5474C66.5474 171.008 67.528 170.092 68.8354 170.092C70.1427 170.092 71.0143 170.893 71.0143 172.267C71.0143 173.87 69.3801 175.702 65.0221 178.45ZM78.6408 180.397C81.2556 180.397 82.9988 178.107 82.9988 174.443C82.9988 170.893 81.2556 168.718 78.6408 168.718C76.026 168.718 74.3918 170.893 74.3918 174.443C74.3918 178.107 76.026 180.397 78.7498 180.397H78.6408ZM75.9171 174.557C75.9171 171.809 77.0066 170.092 78.6408 170.092C80.384 170.092 81.3645 171.809 81.3645 174.443C81.3645 177.191 80.275 178.908 78.6408 178.908C77.0066 178.908 75.9171 177.191 75.9171 174.557Z" fill="white"/>
</g>
<defs>
<clipPath id="clip0_61_491">
<rect width="132.967" height="215.58" fill="white" transform="translate(0.739014 0.898438)"/>
</clipPath>
</defs>
</svg>
