<svg width="134" height="217" viewBox="0 0 134 217" fill="none" xmlns="http://www.w3.org/2000/svg">
<g clip-path="url(#clip0_61_506)">
<path d="M112.55 14H22.4491C10.6028 14 0.999512 24.7454 0.999512 38.0004V181C0.999512 194.255 10.6028 205 22.4491 205H112.55C124.396 205 134 194.255 134 181V38.0004C134 24.7454 124.396 14 112.55 14Z" fill="#28A263"/>
<path fill-rule="evenodd" clip-rule="evenodd" d="M67.5411 39.4366C59.5544 39.4366 53.0789 47.6228 53.0789 57.718C53.0789 67.8143 59.5535 75.9994 67.5411 75.9994C75.5288 75.9994 82.0044 67.8143 82.0044 57.718C82.0044 47.6228 75.5288 39.4366 67.5411 39.4366ZM51.0129 57.7191C51.0129 46.181 58.4128 36.8276 67.5421 36.8276C76.6713 36.8276 84.0712 46.181 84.0712 57.7191C84.0712 69.2584 76.6713 78.6118 67.5421 78.6118C58.4137 78.6118 51.0129 69.2584 51.0129 57.7191ZM63.4928 51.2008C64.2033 50.3524 65.1443 49.8811 66.1217 49.8841H66.5096V44.6604H68.5755V49.8841H69.0046C69.7405 49.9211 70.4523 50.2253 71.0549 50.7603L71.8985 51.5137L70.7074 53.6475L69.8638 52.8941C69.591 52.6536 69.2699 52.5153 68.9377 52.4954H66.1208C65.6605 52.4954 65.2277 52.7156 64.9159 53.0911C64.7679 53.2657 64.6495 53.4767 64.5682 53.711C64.4868 53.9454 64.4442 54.1982 64.4427 54.4542C64.4427 54.9525 64.606 55.444 64.9159 55.8172C65.2277 56.1915 65.6605 56.4129 66.1208 56.4129H68.9624C69.9399 56.4129 70.8862 56.88 71.5923 57.7296C71.943 58.1479 72.2227 58.6521 72.4144 59.2114C72.6061 59.7707 72.7057 60.3735 72.7073 60.983C72.7057 61.5925 72.6061 62.1953 72.4144 62.7546C72.2227 63.3139 71.943 63.818 71.5923 64.2364C70.8816 65.085 69.9402 65.5564 68.9624 65.553H68.5746V70.7768H66.5086V65.553H66.0786C65.3428 65.516 64.6309 65.2118 64.0283 64.6768L63.1847 63.9234L64.3758 61.7897L65.2194 62.543C65.4844 62.7783 65.8063 62.9197 66.1455 62.9417H68.9624C69.4228 62.9417 69.8556 62.7215 70.1673 62.346C70.4773 61.9728 70.6405 61.4814 70.6405 60.983C70.6405 60.4846 70.4773 59.9932 70.1673 59.62C69.8407 59.2341 69.4095 59.0209 68.9624 59.0242H66.1208C65.1431 59.0276 64.2017 58.5562 63.4909 57.7076C63.1402 57.2892 62.8605 56.785 62.6688 56.2257C62.4771 55.6664 62.3775 55.0637 62.3759 54.4542C62.3759 53.221 62.784 52.0515 63.4909 51.2008H63.4928Z" fill="white"/>
<path d="M31.7241 139.892H33.7951V136.805C37.9372 136.613 40.5196 134.518 40.5196 131.266C40.5196 128.454 38.7043 126.442 35.4826 125.505L33.7951 125.009V117.237C35.8917 117.76 37.5793 119.469 37.8861 121.564H40.1361C39.7782 118.201 37.0423 115.555 33.7951 115.087V112H31.7241V115.059C27.9143 115.363 25.562 117.512 25.562 120.875C25.562 123.576 27.3518 125.395 30.9314 126.332L31.7241 126.553V134.628C29.2439 134.104 27.6075 132.285 27.3518 129.584H24.9995C25.383 133.581 27.9399 136.227 31.7241 136.75V139.892ZM27.7098 120.792C27.7098 118.67 29.2695 117.319 31.7241 117.099V124.403C29.0138 123.548 27.7098 122.363 27.7098 120.792ZM33.7951 134.766V127.104L34.3576 127.242C37.1446 127.986 38.423 129.198 38.423 131.018C38.423 133.222 36.6332 134.628 33.7951 134.766ZM42.3788 131.872H51.1489V136.42H53.2455V131.872H56.2881V129.695H53.2455V123.493H51.1489V129.695H44.7312L50.6375 115.418H48.2852L42.3788 129.97V131.872ZM57.7045 140.333H59.0852L60.5426 133.195H57.7045V140.333ZM68.7483 136.833C72.7881 136.833 75.6262 133.746 75.6262 129.336C75.6262 124.899 73.0438 121.784 69.3619 121.784C67.4187 121.784 65.7056 122.694 64.6829 124.1L65.7312 117.595H74.5779V115.418H64.0436L62.3817 126.938L64.4016 127.324C65.3732 125.037 66.8562 123.879 68.8505 123.879C71.6887 123.879 73.504 126.112 73.504 129.336C73.504 132.506 71.5608 134.766 68.7483 134.766C66.1403 134.766 64.3249 132.809 64.3249 130.053H62.2794C62.3817 134.049 65.0408 136.833 68.7483 136.833ZM85.5222 136.833C89.6898 136.833 92.3234 134.049 92.3234 129.557C92.3234 125.119 89.741 122.336 85.6244 122.336C83.0931 122.336 80.8431 123.824 80.0249 125.974C80.4085 120.213 82.4539 117.044 85.8034 117.044C88.079 117.044 89.6131 118.367 89.9711 120.627H92.17C91.5819 117.154 89.204 115.004 85.8034 115.004C80.9965 115.004 78.2351 118.918 78.2351 125.974C78.2351 132.947 80.8687 136.833 85.5222 136.833ZM80.6897 129.557C80.6897 126.525 82.6329 124.375 85.4199 124.375C88.2324 124.375 90.2012 126.525 90.2012 129.557C90.2012 132.644 88.2324 134.821 85.4199 134.821C82.6329 134.821 80.6897 132.644 80.6897 129.557ZM102.457 136.833C107.085 136.833 110 132.644 110 125.891C110 119.194 107.085 115.004 102.457 115.004C97.8544 115.004 94.9396 119.221 94.9396 125.974C94.9396 132.671 97.8544 136.833 102.457 136.833ZM97.0362 125.974C97.0362 120.544 99.1329 117.154 102.457 117.154C105.806 117.154 107.928 120.517 107.928 125.891C107.928 131.293 105.806 134.656 102.457 134.656C99.1329 134.656 97.0362 131.321 97.0362 125.974ZM48.119 174.809H49.6102L47.3254 170.955C48.403 170.497 49.065 169.489 49.065 168.149C49.065 166.311 47.8231 165.087 45.9639 165.087H42.5204V174.809H43.7742V171.211H46.1657L48.119 174.809ZM43.7742 169.947V166.337H45.9639C47.0889 166.337 47.8341 167.064 47.8341 168.149C47.8341 169.234 47.0889 169.947 45.9648 169.947H43.7742ZM53.4418 175C54.9805 175 56.2589 173.903 56.4598 172.513H55.2289C55.0161 173.291 54.2938 173.814 53.4418 173.814C52.2227 173.814 51.442 172.971 51.347 171.607H56.531V171.364C56.531 168.825 55.0042 167.625 53.335 167.625C51.4173 167.625 50.1754 169.234 50.1754 171.313C50.1754 173.546 51.4767 175 53.4418 175ZM51.4173 170.522C51.6548 169.489 52.3643 168.8 53.335 168.8C54.3532 168.8 55.0755 169.476 55.2289 170.522H51.4173ZM59.6495 174.809H61.2238L63.7094 167.817H62.4675L60.4312 173.763L58.4067 167.817H57.1757L59.6495 174.809ZM67.5328 175C69.0715 175 70.35 173.903 70.5508 172.513H69.3199C69.1071 173.291 68.3848 173.814 67.5328 173.814C66.3138 173.814 65.533 172.971 65.438 171.607H70.6221V171.364C70.6221 168.825 69.0953 167.625 67.426 167.625C65.5084 167.625 64.2665 169.234 64.2665 171.313C64.2665 173.546 65.5677 175 67.5328 175ZM65.5084 170.522C65.7458 169.489 66.4553 168.8 67.426 168.8C68.4442 168.8 69.1665 169.476 69.3199 170.522H65.5084ZM76.8855 170.968V174.809H78.0927V170.841C78.0927 168.864 77.0517 167.625 75.4171 167.625C74.5176 167.625 73.7844 168.008 73.3104 168.646V167.817H72.1032V174.809H73.3104V171.083C73.3104 169.641 73.9971 168.8 75.1459 168.8C76.2225 168.8 76.8855 169.628 76.8855 170.968ZM80.8632 171.657V167.817H79.656V171.785C79.656 173.763 80.697 175 82.3316 175C83.2301 175 83.9643 174.618 84.4382 173.979V174.809H85.6454V167.817H84.4382V171.543C84.4382 172.984 83.7515 173.827 82.6028 173.827C81.5252 173.827 80.8632 172.997 80.8632 171.657ZM90.3902 175C91.9289 175 93.2074 173.903 93.4082 172.513H92.1773C91.9645 173.291 91.2422 173.814 90.3902 173.814C89.1712 173.814 88.3904 172.971 88.2945 171.607H93.4795V171.364C93.4795 168.825 91.9527 167.625 90.2834 167.625C88.3658 167.625 87.1239 169.234 87.1239 171.313C87.1239 173.546 88.4251 175 90.3902 175ZM88.3658 170.522C88.6032 169.489 89.3127 168.8 90.2834 168.8C91.3016 168.8 92.023 169.476 92.1773 170.522H88.3658Z" fill="white"/>
</g>
<defs>
<clipPath id="clip0_61_506">
<rect width="132.967" height="215.58" fill="white" transform="translate(0.86084 0.898438)"/>
</clipPath>
</defs>
</svg>
