<svg width="134" height="217" viewBox="0 0 134 217" fill="none" xmlns="http://www.w3.org/2000/svg">
<g clip-path="url(#clip0_61_486)">
<path d="M111.068 14H23.9305C11.2661 14 0.999512 25.4938 0.999512 39.672V179.328C0.999512 193.506 11.2661 205 23.9305 205H111.068C123.733 205 134 193.506 134 179.328V39.672C134 25.4938 123.733 14 111.068 14Z" fill="#28A263"/>
<path d="M60.3126 167H61.8656V182H60.3126V167.115V167ZM61.3479 180.397C60.4161 180.397 59.6914 180.282 59.0702 179.939C58.4969 179.612 58.0005 179.141 57.6207 178.565C57.2066 177.992 56.9995 177.305 56.9995 176.504H58.7596C58.7596 177.191 59.0702 177.649 59.4843 178.221C60.002 178.565 60.6232 178.794 61.4515 178.794C62.0315 178.815 62.6054 178.657 63.108 178.336C63.5221 178.107 63.7292 177.649 63.7292 177.191C63.7292 176.733 63.6257 176.389 63.3151 176.046C63.108 175.817 62.5903 175.588 61.8656 175.473L60.2091 175.015C59.1737 174.786 58.449 174.443 57.9313 173.87C57.5172 173.412 57.3101 172.725 57.3101 171.924C57.3101 171.237 57.4136 170.779 57.8278 170.206C58.1715 169.694 58.6376 169.297 59.1737 169.061C59.6914 168.718 60.4161 168.603 61.1409 168.603C61.8294 168.61 62.5055 168.807 63.108 169.176C63.6482 169.51 64.1093 169.981 64.4539 170.55C64.8681 171.122 65.0751 171.695 65.0751 172.267H63.4186C63.3894 171.882 63.2435 171.519 63.0045 171.237C62.7854 170.934 62.5004 170.697 62.1762 170.55C61.7822 170.374 61.3581 170.295 60.9338 170.321C60.4161 170.321 59.8985 170.435 59.4843 170.779C59.3134 170.901 59.1752 171.072 59.0841 171.273C58.9931 171.474 58.9525 171.699 58.9667 171.924C58.9667 172.267 59.0702 172.611 59.3808 172.84L60.8303 173.527L62.5903 174.099C63.5221 174.328 64.1433 174.672 64.661 175.244C64.9716 175.702 65.2822 176.389 65.2822 177.191C65.2822 177.878 65.0751 178.45 64.7645 178.908C64.4539 179.366 63.9363 179.71 63.4186 180.053C62.7974 180.282 62.0727 180.397 61.3479 180.397ZM68.5953 168.947H70.0448V180.168H68.4918V168.832L68.5953 168.947ZM66.214 170.664H66.6281C67.2493 170.664 67.6635 170.55 68.0776 170.206C68.3882 169.863 68.5953 169.405 68.5953 168.947H69.32C69.32 169.634 69.2165 170.206 69.0094 170.779C68.8151 171.289 68.4805 171.718 68.0531 172.006C67.6256 172.294 67.127 172.425 66.6281 172.382H66.214V170.664ZM75.8427 180.397C75.0533 180.422 74.277 180.17 73.6257 179.676C72.9745 179.182 72.4819 178.472 72.219 177.649C71.8988 176.658 71.7581 175.608 71.8048 174.557C71.8048 173.412 71.9084 172.267 72.219 171.466C72.5111 170.638 73.0147 169.922 73.6684 169.405C74.2896 168.832 75.0144 168.603 75.8427 168.603C76.6709 168.603 77.3957 168.832 78.0169 169.405C78.6381 169.863 79.0522 170.55 79.4663 171.351C80.1772 173.377 80.1772 175.623 79.4663 177.649C79.1742 178.477 78.6706 179.193 78.0169 179.71C77.3957 180.168 76.6709 180.397 75.9462 180.397H75.8427ZM75.8427 178.794C76.3603 178.794 76.878 178.565 77.1886 178.221C77.6027 177.878 77.8098 177.42 78.0169 176.733C78.2368 175.994 78.3418 175.22 78.3275 174.443C78.3275 173.641 78.3275 172.84 78.0169 172.153C77.8098 171.58 77.6027 171.122 77.1886 170.779C76.8165 170.416 76.3388 170.212 75.8427 170.206C75.3465 170.212 74.8688 170.416 74.4967 170.779C74.1861 171.122 73.8755 171.58 73.6684 172.267C73.4485 173.006 73.3435 173.78 73.3578 174.557C73.3578 175.359 73.3578 176.16 73.6684 176.847C73.8755 177.42 74.1861 177.992 74.4967 178.221C74.9109 178.565 75.325 178.794 75.8427 178.794Z" fill="white"/>
</g>
<defs>
<clipPath id="clip0_61_486">
<rect width="132.954" height="215.579" fill="white" transform="translate(0.702637 0.898438)"/>
</clipPath>
</defs>
</svg>
