<svg width="134" height="217" viewBox="0 0 134 217" fill="none" xmlns="http://www.w3.org/2000/svg">
<g clip-path="url(#clip0_61_496)">
<path d="M111.068 14H23.9301C11.2656 14 0.999023 25.4938 0.999023 39.672V179.328C0.999023 193.506 11.2656 205 23.9301 205H111.068C123.732 205 133.999 193.506 133.999 179.328V39.672C133.999 25.4938 123.732 14 111.068 14Z" fill="#66DEA2"/>
<path d="M58.4624 166.173H59.8377V181.356H58.4624V166.289V166.173ZM59.2876 179.733C58.5541 179.733 57.9123 179.618 57.3621 179.27C56.8226 178.978 56.3619 178.493 56.0363 177.876C55.7107 177.259 55.5342 176.535 55.5283 175.793H57.087C57.087 176.488 57.2704 176.952 57.7289 177.531C58.1873 177.879 58.6458 178.111 59.3793 178.111C59.893 178.133 60.4012 177.972 60.8463 177.647C61.3048 177.415 61.4881 176.952 61.4881 176.488C61.4881 176.025 61.3048 175.677 61.1214 175.329C60.8463 175.097 60.4796 174.866 59.8377 174.75L58.279 174.286C57.3621 174.054 56.7203 173.707 56.3535 173.127C55.9839 172.634 55.7631 171.993 55.7295 171.315C55.696 170.637 55.852 169.965 56.1701 169.418C56.4746 168.899 56.8873 168.498 57.3621 168.259C57.9123 167.911 58.4624 167.795 59.1959 167.795C59.7745 167.821 60.3401 168.02 60.8463 168.375C61.358 168.698 61.7989 169.176 62.13 169.766L62.6801 171.504H61.1214C61.0955 171.114 60.9663 170.747 60.7546 170.461C60.5607 170.155 60.3083 169.915 60.0211 169.766C59.7007 169.604 59.3576 169.525 59.0125 169.534C58.4624 169.534 58.0956 169.65 57.7289 169.998C57.5605 170.106 57.4196 170.272 57.3223 170.477C57.225 170.682 57.1753 170.918 57.1787 171.157C57.1787 171.504 57.3621 171.852 57.5455 172.084L58.8291 172.779L60.4796 173.359C61.2131 173.591 61.8549 173.938 62.2217 174.518C62.5884 174.981 62.7718 175.677 62.7718 176.488C62.7718 177.184 62.6801 177.763 62.3134 178.227C62.0383 178.69 61.6715 179.038 61.1214 179.386C60.5301 179.632 59.91 179.75 59.2876 179.733ZM63.8721 175.677L66.6228 168.027H67.9981L65.1557 176.14L64.6056 175.677H70.7488V177.3H63.8721V175.677ZM67.9981 172.663H69.3735V179.502H67.9981V172.663ZM75.3333 179.618C74.6607 179.628 74.0017 179.378 73.4445 178.901C72.8874 178.425 72.4587 177.745 72.2158 176.952C71.9011 175.957 71.7453 174.894 71.7574 173.822C71.7574 172.663 71.9408 171.504 72.2158 170.693C72.4745 169.855 72.9205 169.13 73.4995 168.607C74.0496 168.027 74.6915 167.795 75.3333 167.795C75.9751 167.795 76.8003 168.027 77.2588 168.607C77.8241 169.099 78.2688 169.781 78.5424 170.577C79.172 172.628 79.172 174.901 78.5424 176.952C78.2837 177.79 77.8377 178.515 77.2588 179.038C76.8003 179.502 76.1585 179.733 75.425 179.733L75.3333 179.618ZM75.3333 178.111C75.8834 178.111 76.2502 177.879 76.5253 177.531C76.892 177.184 77.1671 176.72 77.3505 176.025C77.5452 175.277 77.6383 174.493 77.6255 173.707C77.6255 172.895 77.5338 172.084 77.3505 171.388C77.1671 170.809 76.892 170.345 76.5253 169.998C76.2198 169.655 75.8326 169.451 75.425 169.418C74.9856 169.425 74.5626 169.63 74.233 169.998C73.8663 170.345 73.5912 170.809 73.4078 171.504C73.213 172.252 73.12 173.036 73.1327 173.822C73.1327 174.634 73.2244 175.445 73.4078 176.14C73.5912 176.72 73.8663 177.3 74.233 177.531C74.5081 177.879 74.9665 178.111 75.425 178.111H75.3333Z" fill="white"/>
</g>
<defs>
<clipPath id="clip0_61_496">
<rect width="132.954" height="215.579" fill="white" transform="translate(0.788086 0.898438)"/>
</clipPath>
</defs>
</svg>
