<svg width="134" height="217" viewBox="0 0 134 217" fill="none" xmlns="http://www.w3.org/2000/svg">
<g clip-path="url(#clip0_61_501)">
<path d="M111.069 14H23.9313C11.2668 14 1.00024 25.4938 1.00024 39.672V179.328C1.00024 193.506 11.2668 205 23.9313 205H111.069C123.734 205 134 193.506 134 179.328V39.672C134 25.4938 123.734 14 111.069 14Z" fill="#2BB970"/>
<path d="M57.9753 165H59.3698V178H57.9753V165.099V165ZM58.812 176.611C58.0682 176.611 57.4174 176.511 56.8596 176.214C56.3126 175.964 55.8455 175.549 55.5154 175.02C55.1852 174.492 55.0062 173.872 55.0002 173.237H56.5807C56.5807 173.832 56.7667 174.229 57.2315 174.725C57.6964 175.023 58.1612 175.221 58.905 175.221C59.457 175.259 60.0071 175.121 60.4854 174.824C60.8573 174.626 61.0432 174.229 61.0432 173.832C61.0432 173.435 60.8573 173.137 60.6714 172.84C60.3925 172.641 60.0206 172.443 59.3698 172.344L57.8823 171.947C56.9526 171.748 56.2088 171.45 55.837 170.954C55.4651 170.557 55.2792 169.962 55.2792 169.267C55.2792 168.672 55.3721 168.275 55.651 167.779C55.9597 167.334 56.3782 166.991 56.8596 166.786C57.4174 166.489 57.9753 166.389 58.719 166.389C59.3057 166.411 59.8792 166.581 60.3925 166.885C60.9113 167.162 61.3584 167.571 61.694 168.076C62.0659 168.573 62.1589 169.069 62.2518 169.565H60.6714C60.6451 169.231 60.5141 168.916 60.2995 168.672C60.1028 168.409 59.8469 168.204 59.5557 168.076C59.2308 167.937 58.883 167.87 58.5331 167.878C57.9753 167.878 57.6034 167.977 57.2315 168.275C57.0607 168.368 56.9179 168.51 56.8193 168.686C56.7206 168.861 56.6702 169.063 56.6737 169.267C56.6737 169.565 56.8596 169.863 57.0456 170.061L58.3471 170.656L60.0206 171.153C60.7643 171.351 61.4151 171.649 61.787 172.145C62.1589 172.542 62.3448 173.137 62.3448 173.832C62.3448 174.427 62.2518 174.924 61.88 175.321C61.6011 175.718 61.2292 176.015 60.6714 176.313C60.2065 176.511 59.5557 176.611 58.812 176.611ZM66.8073 176.611C66.1566 176.611 65.5058 176.511 64.948 176.214C64.5005 175.994 64.1156 175.652 63.8323 175.221C63.5218 174.722 63.3598 174.134 63.3675 173.534H64.855C64.855 174.031 65.0409 174.527 65.4128 174.725C65.7847 175.023 66.2495 175.221 66.8073 175.221C67.1792 175.221 67.5511 175.221 67.737 175.023C68.1089 174.924 68.3878 174.725 68.4808 174.427C68.6667 174.229 68.7597 173.931 68.7597 173.634C68.7597 173.137 68.4808 172.641 68.1089 172.443C67.5404 172.107 66.8993 171.936 66.2495 171.947V170.656C66.6214 170.656 66.9933 170.656 67.3652 170.458L68.1089 169.962L68.2949 169.168C68.2949 168.771 68.2019 168.473 67.923 168.176C67.6441 167.977 67.2722 167.779 66.8073 167.779C66.3425 167.779 65.8776 167.977 65.5987 168.176C65.4398 168.283 65.3066 168.429 65.2097 168.601C65.1129 168.774 65.0551 168.968 65.0409 169.168H63.7394C63.7368 168.676 63.8658 168.194 64.1112 167.779C64.3945 167.348 64.7794 167.006 65.2269 166.786C65.7088 166.553 66.2318 166.433 66.7609 166.433C67.2899 166.433 67.8129 166.553 68.2949 166.786C68.7597 166.985 69.1316 167.382 69.4105 167.779C69.5964 168.176 69.7824 168.672 69.7824 169.168L69.5034 170.359C69.3076 170.709 69.0154 170.986 68.6667 171.153C68.2899 171.347 67.8768 171.449 67.4581 171.45V170.954C67.979 170.936 68.4943 171.073 68.9456 171.351C69.3175 171.55 69.5964 171.847 69.8753 172.244C70.0613 172.641 70.1542 173.137 70.1542 173.634C70.1717 174.19 70.0429 174.74 69.7824 175.221C69.5035 175.618 69.0386 176.015 68.5738 176.214C67.9965 176.515 67.3559 176.652 66.7144 176.611H66.8073ZM75.3605 176.611C74.6517 176.633 73.9546 176.414 73.3698 175.986C72.785 175.558 72.3427 174.943 72.1066 174.229C71.7874 173.377 71.6295 172.467 71.6417 171.55C71.6417 170.557 71.8277 169.565 72.1066 168.87C72.3689 168.153 72.8211 167.532 73.4082 167.084C73.966 166.588 74.6168 166.389 75.2675 166.389C75.9183 166.389 76.7551 166.588 77.2199 167.084C77.7931 167.505 78.244 168.09 78.5215 168.771C79.1598 170.527 79.1598 172.473 78.5215 174.229C78.2592 174.947 77.8069 175.567 77.2199 176.015C76.7551 176.412 76.1043 176.611 75.3605 176.611ZM75.3605 175.221C75.7324 175.221 76.1972 175.023 76.4761 174.725C76.848 174.427 77.1269 174.031 77.3129 173.435C77.5104 172.795 77.6047 172.124 77.5918 171.45C77.5918 170.756 77.4988 170.061 77.3129 169.466C77.1269 168.969 76.848 168.573 76.4761 168.275C76.1664 167.981 75.7738 167.807 75.3605 167.779C74.915 167.784 74.4861 167.96 74.1519 168.275C73.78 168.573 73.5011 168.969 73.3152 169.565C73.1177 170.205 73.0234 170.876 73.0363 171.55C73.0363 172.244 73.1293 172.939 73.3152 173.534C73.5011 174.031 73.78 174.527 74.1519 174.725C74.4308 175.023 74.8957 175.221 75.3605 175.221Z" fill="white"/>
</g>
<defs>
<clipPath id="clip0_61_501">
<rect width="132.954" height="215.579" fill="white" transform="translate(0.824463 0.898438)"/>
</clipPath>
</defs>
</svg>
